<?xml version="1.0" standalone="no"?>
<!DOCTYPE svg PUBLIC "-//W3C//DTD SVG 20010904//EN"
 "http://www.w3.org/TR/2001/REC-SVG-20010904/DTD/svg10.dtd">
<svg version="1.0" xmlns="http://www.w3.org/2000/svg"
 width="598.000000pt" height="417.000000pt" viewBox="0 0 598.000000 417.000000"
 preserveAspectRatio="xMidYMid meet">

<g transform="translate(0.000000,417.000000) scale(0.100000,-0.100000)"
fill="#000000" stroke="none">
<path d="M2160 3570 c-18 -18 -20 -35 -22 -167 -3 -139 -2 -286 2 -325 1 -10
5 -20 11 -23 5 -3 7 0 4 7 -4 10 6 12 39 10 75 -6 77 4 69 267 -6 209 -7 223
-27 237 -28 19 -52 18 -76 -6z"/>
<path d="M2950 3570 c-18 -18 -20 -35 -22 -167 -3 -139 -2 -286 2 -325 1 -10
5 -20 11 -23 5 -3 7 0 4 7 -4 10 6 12 39 10 74 -6 77 4 69 263 -6 193 -8 220
-25 237 -24 24 -53 23 -78 -2z"/>
<path d="M3744 3576 c-20 -14 -21 -28 -27 -237 -8 -258 -6 -269 63 -269 68 0
71 11 63 265 -6 193 -8 220 -25 237 -22 22 -46 23 -74 4z"/>
<path d="M1635 3320 c-102 -15 -205 -91 -252 -189 l-28 -56 0 -1055 0 -1055
29 -58 c36 -71 99 -130 174 -165 l57 -27 790 -3 790 -3 28 21 c32 26 35 60 6
86 -20 18 -52 19 -828 24 l-808 5 -37 29 c-21 16 -47 47 -57 70 -18 39 -19 82
-19 854 l0 812 1510 0 1510 0 0 -368 c0 -316 2 -371 16 -390 20 -28 65 -29 90
-1 18 20 19 45 19 618 l0 596 -33 67 c-34 70 -95 133 -157 162 -60 29 -142 37
-317 34 -165 -3 -170 -4 -189 -27 -24 -29 -24 -63 -1 -84 16 -15 46 -17 208
-17 107 0 206 -5 229 -11 52 -15 110 -74 124 -126 7 -25 10 -99 9 -178 l-3
-135 -1505 0 -1505 0 -3 135 c-1 79 2 153 9 178 14 52 72 111 124 126 23 6
121 11 225 11 152 0 190 3 208 16 29 20 28 59 -3 89 -24 25 -26 25 -192 24
-92 -1 -191 -5 -218 -9z"/>
<path d="M2371 3317 c-35 -17 -47 -61 -27 -92 l16 -25 235 0 235 0 16 26 c22
32 10 73 -26 91 -35 18 -415 18 -449 0z"/>
<path d="M3160 3317 c-36 -18 -48 -59 -26 -91 l16 -26 230 0 c217 0 231 1 250
20 11 11 20 25 20 30 0 25 -31 68 -52 74 -46 12 -412 6 -438 -7z"/>
<path d="M2288 3253 c6 -2 18 -2 25 0 6 3 1 5 -13 5 -14 0 -19 -2 -12 -5z"/>
<path d="M3078 3253 c6 -2 18 -2 25 0 6 3 1 5 -13 5 -14 0 -19 -2 -12 -5z"/>
<path d="M3668 3253 c6 -2 18 -2 25 0 6 3 1 5 -13 5 -14 0 -19 -2 -12 -5z"/>
<path d="M3860 3256 c0 -9 30 -14 35 -6 4 6 -3 10 -14 10 -12 0 -21 -2 -21 -4z"/>
<path d="M2300 3215 c0 -4 7 -13 15 -21 9 -9 15 -11 15 -4 0 6 6 8 13 4 7 -4
9 -3 4 2 -5 5 -12 9 -15 9 -4 0 -13 4 -19 8 -7 5 -13 5 -13 2z"/>
<path d="M4410 3140 c8 -5 20 -10 25 -10 6 0 3 5 -5 10 -8 5 -19 10 -25 10 -5
0 -3 -5 5 -10z"/>
<path d="M1540 3129 c0 -5 5 -7 10 -4 6 3 10 8 10 11 0 2 -4 4 -10 4 -5 0 -10
-5 -10 -11z"/>
<path d="M3715 3070 c10 -11 20 -20 23 -20 3 0 -3 9 -13 20 -10 11 -20 20 -23
20 -3 0 3 -9 13 -20z"/>
<path d="M2742 2253 c-38 -19 -70 -59 -78 -101 -12 -60 59 -142 122 -142 107
0 173 122 108 200 -29 34 -73 60 -101 60 -10 0 -33 -8 -51 -17z"/>
<path d="M3202 2253 c-38 -19 -70 -59 -78 -101 -12 -60 59 -142 122 -142 107
0 173 122 108 200 -29 34 -73 60 -101 60 -10 0 -33 -8 -51 -17z"/>
<path d="M3662 2253 c-38 -19 -70 -59 -78 -101 -12 -60 59 -142 122 -142 107
0 173 122 108 200 -29 34 -73 60 -101 60 -10 0 -33 -8 -51 -17z"/>
<path d="M4122 2253 c-38 -19 -70 -59 -78 -101 -12 -60 59 -142 122 -142 107
0 173 122 108 200 -29 34 -73 60 -101 60 -10 0 -33 -8 -51 -17z"/>
<path d="M3985 1815 c-241 -44 -461 -210 -575 -435 -51 -100 -72 -181 -77
-301 -7 -151 7 -227 63 -348 105 -224 281 -379 514 -453 63 -19 97 -23 205
-23 75 0 153 6 185 13 78 19 245 103 312 156 120 96 232 269 273 421 99 377
-127 798 -503 935 -132 48 -263 60 -397 35z m310 -140 c116 -30 203 -81 296
-174 66 -67 93 -103 122 -163 90 -186 90 -424 2 -603 -82 -164 -238 -293 -415
-341 -81 -22 -262 -25 -340 -5 -221 55 -388 207 -468 423 -24 67 -26 85 -26
223 0 119 4 160 18 200 71 199 212 350 385 416 130 49 291 58 426 24z"/>
<path d="M3807 1512 c-32 -36 -20 -67 112 -279 150 -243 165 -263 194 -263 12
0 81 21 152 46 72 25 153 54 180 63 81 28 102 103 37 130 -25 11 -45 6 -173
-39 -79 -27 -149 -50 -155 -50 -6 0 -64 86 -128 190 -65 105 -125 197 -133
205 -20 21 -67 19 -86 -3z"/>
<path d="M1822 1793 c-65 -32 -96 -107 -68 -161 51 -98 172 -108 226 -19 40
66 14 144 -61 182 -36 19 -56 19 -97 -2z"/>
<path d="M2269 1786 c-35 -24 -69 -78 -69 -111 0 -52 75 -125 129 -125 105 0
169 123 105 200 -53 63 -108 75 -165 36z"/>
<path d="M2742 1793 c-65 -32 -96 -107 -68 -161 51 -98 172 -108 226 -19 40
66 14 144 -61 182 -36 19 -56 19 -97 -2z"/>
<path d="M3189 1786 c-35 -24 -69 -78 -69 -111 0 -52 75 -125 129 -125 105 0
169 123 105 200 -53 63 -108 75 -165 36z"/>
<path d="M1809 1326 c-36 -25 -69 -78 -69 -113 0 -29 37 -81 72 -103 42 -26
82 -25 125 1 90 56 81 173 -18 224 -40 21 -69 19 -110 -9z"/>
<path d="M2269 1326 c-36 -25 -69 -78 -69 -113 0 -29 37 -81 72 -103 42 -26
82 -25 125 1 90 56 81 173 -18 224 -40 21 -69 19 -110 -9z"/>
<path d="M2729 1326 c-36 -25 -69 -78 -69 -113 0 -29 37 -81 72 -103 42 -26
82 -25 125 1 90 56 81 173 -18 224 -40 21 -69 19 -110 -9z"/>
</g>
</svg>
